<svg width="1363" height="273" viewBox="0 0 1363 273" fill="none" xmlns="http://www.w3.org/2000/svg">
<path d="M1326.08 179.176L1331.04 190.468C1331.59 191.722 1333.39 191.644 1333.83 190.347L1337.71 178.906L1335.33 190.998C1335.06 192.32 1336.54 193.288 1337.65 192.521L1347.45 185.739L1338.57 193.908C1337.59 194.811 1338.18 196.449 1339.52 196.511L1351.57 197.063L1339.7 198.163C1338.36 198.288 1337.85 199.98 1338.9 200.825L1348.5 208.555L1338.17 202.285C1337 201.575 1335.57 202.675 1335.96 203.989L1339.42 215.824L1334.46 204.532C1333.91 203.278 1332.11 203.356 1331.67 204.653L1327.79 216.094L1330.17 204.002C1330.43 202.68 1328.96 201.712 1327.85 202.479L1318.05 209.261L1326.93 201.091C1327.91 200.189 1327.31 198.55 1325.98 198.489L1313.93 197.937L1325.79 196.837C1327.14 196.712 1327.65 195.02 1326.6 194.175L1317 186.445L1327.32 192.714C1328.49 193.425 1329.93 192.325 1329.54 191.011L1326.08 179.176Z" fill="#E8E0DA" fill-opacity="0.2"/>
<path d="M1141.62 88.4128L1146.57 99.7047C1147.12 100.958 1148.93 100.88 1149.37 99.5838L1153.25 88.143L1150.86 100.235C1150.6 101.556 1152.08 102.525 1153.19 101.758L1162.98 94.9754L1154.11 103.145C1153.13 104.048 1153.72 105.686 1155.06 105.747L1167.11 106.3L1155.24 107.4C1153.9 107.524 1153.39 109.217 1154.44 110.062L1164.04 117.792L1153.71 111.522C1152.54 110.812 1151.11 111.912 1151.5 113.226L1154.96 125.061L1150 113.769C1149.45 112.515 1147.65 112.593 1147.21 113.89L1143.33 125.331L1145.71 113.239C1145.97 111.917 1144.49 110.949 1143.39 111.716L1133.59 118.498L1142.47 110.328C1143.45 109.425 1142.85 107.787 1141.52 107.726L1129.47 107.173L1141.33 106.074C1142.67 105.949 1143.19 104.257 1142.14 103.412L1132.54 95.6818L1142.86 101.951C1144.03 102.662 1145.47 101.562 1145.08 100.248L1141.62 88.4128Z" fill="#E8E0DA" fill-opacity="0.2"/>
<path d="M336.619 180.413L341.574 191.705C342.124 192.958 343.928 192.88 344.368 191.584L348.249 180.143L345.865 192.235C345.604 193.556 347.083 194.525 348.19 193.758L357.985 186.975L349.108 195.145C348.127 196.048 348.723 197.686 350.055 197.747L362.106 198.3L350.244 199.4C348.902 199.524 348.392 201.217 349.441 202.062L359.041 209.792L348.714 203.522C347.543 202.812 346.111 203.912 346.495 205.226L349.958 217.061L345.003 205.769C344.453 204.515 342.649 204.593 342.209 205.89L338.328 217.331L340.713 205.239C340.973 203.917 339.495 202.949 338.387 203.716L328.593 210.498L337.469 202.328C338.45 201.425 337.854 199.787 336.522 199.726L324.471 199.173L336.333 198.074C337.675 197.949 338.185 196.257 337.136 195.412L327.537 187.682L337.864 193.951C339.034 194.662 340.466 193.562 340.082 192.248L336.619 180.413Z" fill="#E8E0DA" fill-opacity="0.2"/>
<path d="M1188.62 185.413L1193.57 196.705C1194.12 197.958 1195.93 197.88 1196.37 196.584L1200.25 185.143L1197.86 197.235C1197.6 198.556 1199.08 199.525 1200.19 198.758L1209.98 191.975L1201.11 200.145C1200.13 201.048 1200.72 202.686 1202.06 202.747L1214.11 203.3L1202.24 204.4C1200.9 204.524 1200.39 206.217 1201.44 207.062L1211.04 214.792L1200.71 208.522C1199.54 207.812 1198.11 208.912 1198.5 210.226L1201.96 222.061L1197 210.769C1196.45 209.515 1194.65 209.593 1194.21 210.89L1190.33 222.331L1192.71 210.239C1192.97 208.917 1191.49 207.949 1190.39 208.716L1180.59 215.498L1189.47 207.328C1190.45 206.425 1189.85 204.787 1188.52 204.726L1176.47 204.173L1188.33 203.074C1189.67 202.949 1190.19 201.257 1189.14 200.412L1179.54 192.682L1189.86 198.951C1191.03 199.662 1192.47 198.562 1192.08 197.248L1188.62 185.413Z" fill="#E8E0DA" fill-opacity="0.2"/>
<path d="M1331.62 6.41281L1336.57 17.7047C1337.12 18.9584 1338.93 18.8803 1339.37 17.5838L1343.25 6.14298L1340.86 18.2346C1340.6 19.5564 1342.08 20.525 1343.19 19.758L1352.98 12.9754L1344.11 21.1453C1343.13 22.0481 1343.72 23.6863 1345.06 23.7474L1357.11 24.3002L1345.24 25.4001C1343.9 25.5245 1343.39 27.217 1344.44 28.062L1354.04 35.7919L1343.71 29.5223C1342.54 28.8119 1341.11 29.9118 1341.5 31.2257L1344.96 43.0608L1340 31.7689C1339.45 30.5153 1337.65 30.5933 1337.21 31.8898L1333.33 43.3306L1335.71 31.239C1335.97 29.9173 1334.49 28.9486 1333.39 29.7156L1323.59 36.4983L1332.47 28.3283C1333.45 27.4255 1332.85 25.7873 1331.52 25.7262L1319.47 25.1734L1331.33 24.0735C1332.67 23.9491 1333.19 22.2566 1332.14 21.4116L1322.54 13.6818L1332.86 19.9513C1334.03 20.6618 1335.47 19.5619 1335.08 18.2479L1331.62 6.41281Z" fill="#E8E0DA" fill-opacity="0.2"/>
<path d="M1017.62 51.4128L1022.57 62.7047C1023.12 63.9584 1024.93 63.8803 1025.37 62.5838L1029.25 51.143L1026.86 63.2346C1026.6 64.5564 1028.08 65.525 1029.19 64.758L1038.98 57.9754L1030.11 66.1453C1029.13 67.0481 1029.72 68.6863 1031.06 68.7474L1043.11 69.3002L1031.24 70.4001C1029.9 70.5245 1029.39 72.217 1030.44 73.062L1040.04 80.7919L1029.71 74.5223C1028.54 73.8119 1027.11 74.9118 1027.5 76.2257L1030.96 88.0608L1026 76.7689C1025.45 75.5153 1023.65 75.5933 1023.21 76.8898L1019.33 88.3306L1021.71 76.239C1021.97 74.9173 1020.49 73.9486 1019.39 74.7156L1009.59 81.4983L1018.47 73.3283C1019.45 72.4255 1018.85 70.7873 1017.52 70.7262L1005.47 70.1734L1017.33 69.0735C1018.67 68.9491 1019.19 67.2566 1018.14 66.4116L1008.54 58.6818L1018.86 64.9513C1020.03 65.6618 1021.47 64.5619 1021.08 63.2479L1017.62 51.4128Z" fill="#E8E0DA" fill-opacity="0.2"/>
<path d="M143.619 36.4128L148.574 47.7047C149.124 48.9584 150.928 48.8803 151.368 47.5838L155.249 36.143L152.865 48.2346C152.604 49.5564 154.083 50.525 155.19 49.758L164.985 42.9754L156.108 51.1453C155.127 52.0481 155.723 53.6863 157.055 53.7474L169.106 54.3002L157.244 55.4001C155.902 55.5245 155.392 57.217 156.441 58.062L166.041 65.7919L155.714 59.5223C154.543 58.8119 153.111 59.9118 153.495 61.2257L156.958 73.0608L152.003 61.7689C151.453 60.5153 149.649 60.5933 149.209 61.8898L145.328 73.3306L147.713 61.239C147.973 59.9173 146.495 58.9486 145.387 59.7156L135.593 66.4983L144.469 58.3283C145.45 57.4255 144.854 55.7873 143.522 55.7262L131.471 55.1734L143.333 54.0735C144.675 53.9491 145.185 52.2566 144.136 51.4116L134.537 43.6818L144.864 49.9513C146.034 50.6618 147.466 49.5619 147.082 48.2479L143.619 36.4128Z" fill="#E8E0DA" fill-opacity="0.2"/>
<path d="M17.6192 229.413L22.5742 240.705C23.1243 241.958 24.9285 241.88 25.3683 240.584L29.2493 229.143L26.8646 241.235C26.6039 242.556 28.0827 243.525 29.1902 242.758L38.9846 235.975L30.1081 244.145C29.1271 245.048 29.7234 246.686 31.0551 246.747L43.1065 247.3L31.2438 248.4C29.9023 248.524 29.3922 250.217 30.4415 251.062L40.0406 258.792L29.7135 252.522C28.5433 251.812 27.111 252.912 27.4955 254.226L30.958 266.061L26.003 254.769C25.4529 253.515 23.6488 253.593 23.209 254.89L19.328 266.331L21.7127 254.239C21.9733 252.917 20.4946 251.949 19.387 252.716L9.5927 259.498L18.4692 251.328C19.4501 250.425 18.8539 248.787 17.5221 248.726L5.47078 248.173L17.3335 247.074C18.6749 246.949 19.1851 245.257 18.1358 244.412L8.53665 236.682L18.8637 242.951C20.034 243.662 21.4662 242.562 21.0818 241.248L17.6192 229.413Z" fill="#E8E0DA" fill-opacity="0.2"/>
<path d="M1009.62 198.413L1014.57 209.705C1015.12 210.958 1016.93 210.88 1017.37 209.584L1021.25 198.143L1018.86 210.235C1018.6 211.556 1020.08 212.525 1021.19 211.758L1030.98 204.975L1022.11 213.145C1021.13 214.048 1021.72 215.686 1023.06 215.747L1035.11 216.3L1023.24 217.4C1021.9 217.524 1021.39 219.217 1022.44 220.062L1032.04 227.792L1021.71 221.522C1020.54 220.812 1019.11 221.912 1019.5 223.226L1022.96 235.061L1018 223.769C1017.45 222.515 1015.65 222.593 1015.21 223.89L1011.33 235.331L1013.71 223.239C1013.97 221.917 1012.49 220.949 1011.39 221.716L1001.59 228.498L1010.47 220.328C1011.45 219.425 1010.85 217.787 1009.52 217.726L997.471 217.173L1009.33 216.074C1010.67 215.949 1011.19 214.257 1010.14 213.412L1000.54 205.682L1010.86 211.951C1012.03 212.662 1013.47 211.562 1013.08 210.248L1009.62 198.413Z" fill="#E8E0DA" fill-opacity="0.2"/>
<path d="M361.75 56L362.544 68.3056C362.632 69.6718 364.354 70.2155 365.211 69.1477L372.771 59.7242L366.395 70.2709C365.697 71.4239 366.756 72.8398 368.059 72.4979L379.582 69.4742L368.447 74.1155C367.216 74.6283 367.216 76.3717 368.447 76.8845L379.582 81.5258L368.059 78.5021C366.756 78.1602 365.697 79.5761 366.395 80.7291L372.771 91.2758L365.211 81.8523C364.354 80.7845 362.632 81.3282 362.544 82.6944L361.75 95L360.956 82.6944C360.868 81.3282 359.146 80.7845 358.289 81.8523L350.729 91.2758L357.105 80.7291C357.803 79.5761 356.744 78.1602 355.441 78.5021L343.918 81.5258L355.053 76.8845C356.284 76.3717 356.284 74.6283 355.053 74.1155L343.918 69.4742L355.441 72.4979C356.744 72.8398 357.803 71.4239 357.105 70.2709L350.729 59.7242L358.289 69.1477C359.146 70.2155 360.868 69.6718 360.956 68.3056L361.75 56Z" fill="#E8E0DA"/>
<path d="M208.75 167L209.544 179.306C209.632 180.672 211.354 181.216 212.211 180.148L219.771 170.724L213.395 181.271C212.697 182.424 213.756 183.84 215.059 183.498L226.582 180.474L215.447 185.115C214.216 185.628 214.216 187.372 215.447 187.885L226.582 192.526L215.059 189.502C213.756 189.16 212.697 190.576 213.395 191.729L219.771 202.276L212.211 192.852C211.354 191.784 209.632 192.328 209.544 193.694L208.75 206L207.956 193.694C207.868 192.328 206.146 191.784 205.289 192.852L197.729 202.276L204.105 191.729C204.803 190.576 203.744 189.16 202.441 189.502L190.918 192.526L202.053 187.885C203.284 187.372 203.284 185.628 202.053 185.115L190.918 180.474L202.441 183.498C203.744 183.84 204.803 182.424 204.105 181.271L197.729 170.724L205.289 180.148C206.146 181.216 207.868 180.672 207.956 179.306L208.75 167Z" fill="#E8E0DA"/>
<path d="M78.75 76L79.5441 88.3056C79.6323 89.6718 81.3543 90.2155 82.211 89.1477L89.771 79.7242L83.3945 90.2709C82.6975 91.4239 83.7557 92.8398 85.0589 92.4979L96.5823 89.4742L85.4468 94.1155C84.2163 94.6283 84.2163 96.3717 85.4468 96.8845L96.5823 101.526L85.0589 98.5021C83.7557 98.1602 82.6975 99.5761 83.3945 100.729L89.771 111.276L82.211 101.852C81.3543 100.784 79.6323 101.328 79.5441 102.694L78.75 115L77.9559 102.694C77.8677 101.328 76.1457 100.784 75.289 101.852L67.729 111.276L74.1055 100.729C74.8025 99.5761 73.7443 98.1602 72.4411 98.5021L60.9177 101.526L72.0532 96.8845C73.2837 96.3717 73.2837 94.6283 72.0532 94.1155L60.9177 89.4742L72.4411 92.4979C73.7443 92.8398 74.8025 91.4239 74.1055 90.2709L67.729 79.7242L75.289 89.1477C76.1457 90.2155 77.8677 89.6718 77.9559 88.3056L78.75 76Z" fill="#E8E0DA"/>
</svg>
